HIERARCHY
ROOT Hips
{
	OFFSET 0.000000 100.481300 0.000000
	CHANNELS 6 Xposition Yposition Zposition Xrotation Yrotation Zrotation
	JOINT Spine
	{
		OFFSET -0.279200 12.230698 -2.892100
		CHANNELS 3 Xrotation Yrotation Zrotation
		JOINT Spine1
		{
			OFFSET -0.325700 14.269203 -3.374200
			CHANNELS 3 Xrotation Yrotation Zrotation
			JOINT Spine2
			{
				OFFSET -0.372300 16.307602 -0.352600
				CHANNELS 3 Xrotation Yrotation Zrotation
				JOINT Neck
				{
					OFFSET -0.418800 17.814194 8.416900
					CHANNELS 3 Xrotation Yrotation Zrotation
					JOINT Head
					{
						OFFSET 0.000000 7.031097 3.806800
						CHANNELS 3 Xrotation Yrotation Zrotation
						JOINT HeadTop_End
						{
							OFFSET 0.000000 24.646606 12.978600
							CHANNELS 3 Xrotation Yrotation Zrotation
							End Site
							{
								OFFSET 0.000000 27.854965 0.000000
							}
						}
					}
				}
				JOINT LeftShoulder
				{
					OFFSET 16.952999 14.495407 -7.737500
					CHANNELS 3 Xrotation Yrotation Zrotation
					JOINT LeftArm
					{
						OFFSET 9.308998 -2.777710 0.208600
						CHANNELS 3 Xrotation Yrotation Zrotation
						JOINT LeftForeArm
						{
							OFFSET 29.972298 0.000000 0.000000
							CHANNELS 3 Xrotation Yrotation Zrotation
							JOINT LeftHand
							{
								OFFSET 26.026505 0.000000 0.000000
								CHANNELS 3 Xrotation Yrotation Zrotation
								JOINT LeftHandThumb1
								{
									OFFSET 12.240501 -7.147949 9.207150
									CHANNELS 3 Xrotation Yrotation Zrotation
									JOINT LeftHandThumb2
									{
										OFFSET 4.138618 -2.389435 2.389433
										CHANNELS 3 Xrotation Yrotation Zrotation
										JOINT LeftHandThumb3
										{
											OFFSET 2.726913 -1.574387 1.574386
											CHANNELS 3 Xrotation Yrotation Zrotation
											JOINT LeftHandThumb4
											{
												OFFSET 3.941010 -2.275345 2.275342
												CHANNELS 3 Xrotation Yrotation Zrotation
												End Site
												{
													OFFSET -0.005798 5.087799 0.009903
												}
											}
										}
									}
								}
								JOINT LeftHandIndex1
								{
									OFFSET 24.424698 -1.985611 5.953459
									CHANNELS 3 Xrotation Yrotation Zrotation
									JOINT LeftHandIndex2
									{
										OFFSET 6.426697 0.000000 0.000000
										CHANNELS 3 Xrotation Yrotation Zrotation
										JOINT LeftHandIndex3
										{
											OFFSET 5.337898 0.000000 0.000000
											CHANNELS 3 Xrotation Yrotation Zrotation
											JOINT LeftHandIndex4
											{
												OFFSET 4.409401 0.000000 0.000000
												CHANNELS 3 Xrotation Yrotation Zrotation
												End Site
												{
													OFFSET 0.000000 4.409363 0.014373
												}
											}
										}
									}
								}
								JOINT LeftHandMiddle1
								{
									OFFSET 23.810104 0.000000 0.000000
									CHANNELS 3 Xrotation Yrotation Zrotation
									JOINT LeftHandMiddle2
									{
										OFFSET 7.176498 0.000000 0.000000
										CHANNELS 3 Xrotation Yrotation Zrotation
										JOINT LeftHandMiddle3
										{
											OFFSET 6.774902 0.000000 0.000000
											CHANNELS 3 Xrotation Yrotation Zrotation
											JOINT LeftHandMiddle4
											{
												OFFSET 5.403328 0.000000 0.000000
												CHANNELS 3 Xrotation Yrotation Zrotation
												End Site
												{
													OFFSET -0.027702 5.403244 0.017414
												}
											}
										}
									}
								}
								JOINT LeftHandRing1
								{
									OFFSET 22.908401 -0.839279 -6.020567
									CHANNELS 3 Xrotation Yrotation Zrotation
									JOINT LeftHandRing2
									{
										OFFSET 6.337502 0.000000 0.000000
										CHANNELS 3 Xrotation Yrotation Zrotation
										JOINT LeftHandRing3
										{
											OFFSET 5.779297 0.000000 0.000000
											CHANNELS 3 Xrotation Yrotation Zrotation
											JOINT LeftHandRing4
											{
												OFFSET 4.965698 0.000000 0.000000
												CHANNELS 3 Xrotation Yrotation Zrotation
												End Site
												{
													OFFSET 0.000000 4.965668 0.016186
												}
											}
										}
									}
								}
								JOINT LeftHandPinky1
								{
									OFFSET 20.037003 -1.530319 -10.950146
									CHANNELS 3 Xrotation Yrotation Zrotation
									JOINT LeftHandPinky2
									{
										OFFSET 5.254700 0.000000 0.000000
										CHANNELS 3 Xrotation Yrotation Zrotation
										JOINT LeftHandPinky3
										{
											OFFSET 4.810204 0.000000 0.000000
											CHANNELS 3 Xrotation Yrotation Zrotation
											JOINT LeftHandPinky4
											{
												OFFSET 3.647202 0.000000 0.000000
												CHANNELS 3 Xrotation Yrotation Zrotation
												End Site
												{
													OFFSET 0.000000 3.647186 0.011889
												}
											}
										}
									}
								}
							}
						}
					}
				}
				JOINT RightShoulder
				{
					OFFSET -15.141001 14.495407 -7.737500
					CHANNELS 3 Xrotation Yrotation Zrotation
					JOINT RightArm
					{
						OFFSET -9.308998 -2.777710 0.208500
						CHANNELS 3 Xrotation Yrotation Zrotation
						JOINT RightForeArm
						{
							OFFSET -29.972300 0.000000 0.000000
							CHANNELS 3 Xrotation Yrotation Zrotation
							JOINT RightHand
							{
								OFFSET -26.026505 0.000000 0.000000
								CHANNELS 3 Xrotation Yrotation Zrotation
								JOINT RightHandThumb1
								{
									OFFSET -12.240601 -7.148026 9.207092
									CHANNELS 3 Xrotation Yrotation Zrotation
									JOINT RightHandThumb2
									{
										OFFSET -4.138618 -2.389435 2.389433
										CHANNELS 3 Xrotation Yrotation Zrotation
										JOINT RightHandThumb3
										{
											OFFSET -2.726974 -1.574417 1.574421
											CHANNELS 3 Xrotation Yrotation Zrotation
											JOINT RightHandThumb4
											{
												OFFSET -3.941010 -2.275345 2.275343
												CHANNELS 3 Xrotation Yrotation Zrotation
												End Site
												{
													OFFSET 0.005814 5.087799 0.009927
												}
											}
										}
									}
								}
								JOINT RightHandIndex1
								{
									OFFSET -24.424698 -1.985657 5.953444
									CHANNELS 3 Xrotation Yrotation Zrotation
									JOINT RightHandIndex2
									{
										OFFSET -6.426697 0.000000 0.000000
										CHANNELS 3 Xrotation Yrotation Zrotation
										JOINT RightHandIndex3
										{
											OFFSET -5.337898 0.000000 0.000000
											CHANNELS 3 Xrotation Yrotation Zrotation
											JOINT RightHandIndex4
											{
												OFFSET -4.409401 0.000000 0.000000
												CHANNELS 3 Xrotation Yrotation Zrotation
												End Site
												{
													OFFSET 0.000000 4.409363 0.014408
												}
											}
										}
									}
								}
								JOINT RightHandMiddle1
								{
									OFFSET -23.810097 0.000000 0.000000
									CHANNELS 3 Xrotation Yrotation Zrotation
									JOINT RightHandMiddle2
									{
										OFFSET -7.176498 0.000000 0.000000
										CHANNELS 3 Xrotation Yrotation Zrotation
										JOINT RightHandMiddle3
										{
											OFFSET -6.774902 0.000000 0.000000
											CHANNELS 3 Xrotation Yrotation Zrotation
											JOINT RightHandMiddle4
											{
												OFFSET -5.403328 0.000000 0.000000
												CHANNELS 3 Xrotation Yrotation Zrotation
												End Site
												{
													OFFSET 0.027702 5.403244 0.017457
												}
											}
										}
									}
								}
								JOINT RightHandRing1
								{
									OFFSET -22.908302 -0.839325 -6.020576
									CHANNELS 3 Xrotation Yrotation Zrotation
									JOINT RightHandRing2
									{
										OFFSET -6.337502 0.000000 0.000000
										CHANNELS 3 Xrotation Yrotation Zrotation
										JOINT RightHandRing3
										{
											OFFSET -5.779297 0.000000 0.000000
											CHANNELS 3 Xrotation Yrotation Zrotation
											JOINT RightHandRing4
											{
												OFFSET -4.965698 0.000000 0.000000
												CHANNELS 3 Xrotation Yrotation Zrotation
												End Site
												{
													OFFSET 0.000000 4.965668 0.016226
												}
											}
										}
									}
								}
								JOINT RightHandPinky1
								{
									OFFSET -20.037003 -1.530334 -10.950259
									CHANNELS 3 Xrotation Yrotation Zrotation
									JOINT RightHandPinky2
									{
										OFFSET -5.254700 0.000000 0.000000
										CHANNELS 3 Xrotation Yrotation Zrotation
										JOINT RightHandPinky3
										{
											OFFSET -4.810204 0.000000 0.000000
											CHANNELS 3 Xrotation Yrotation Zrotation
											JOINT RightHandPinky4
											{
												OFFSET -3.647202 0.000000 0.000000
												CHANNELS 3 Xrotation Yrotation Zrotation
												End Site
												{
													OFFSET 0.000000 3.647186 0.011917
												}
											}
										}
									}
								}
							}
						}
					}
				}
			}
		}
	}
	JOINT LeftUpLeg
	{
		OFFSET 15.427100 -6.655098 0.678600
		CHANNELS 3 Xrotation Yrotation Zrotation
		JOINT LeftLeg
		{
			OFFSET 4.081073 -39.591068 13.024000
			CHANNELS 3 Xrotation Yrotation Zrotation
			JOINT LeftFoot
			{
				OFFSET -4.081074 -37.707932 -15.979700
				CHANNELS 3 Xrotation Yrotation Zrotation
				JOINT LeftToeBase
				{
					OFFSET 5.346399 -15.068900 20.645000
					CHANNELS 3 Xrotation Yrotation Zrotation
					JOINT LeftToe_End
					{
						OFFSET 2.754700 0.931300 11.300900
						CHANNELS 3 Xrotation Yrotation Zrotation
						End Site
						{
							OFFSET 0.000000 11.669021 0.000000
						}
					}
				}
			}
		}
	}
	JOINT RightUpLeg
	{
		OFFSET -15.569500 -6.655098 0.678600
		CHANNELS 3 Xrotation Yrotation Zrotation
		JOINT RightLeg
		{
			OFFSET -4.081825 -39.591045 13.023800
			CHANNELS 3 Xrotation Yrotation Zrotation
			JOINT RightFoot
			{
				OFFSET 4.081824 -37.707954 -15.979600
				CHANNELS 3 Xrotation Yrotation Zrotation
				JOINT RightToeBase
				{
					OFFSET -5.346400 -15.068900 20.645000
					CHANNELS 3 Xrotation Yrotation Zrotation
					JOINT RightToe_End
					{
						OFFSET -2.754700 0.931300 11.300900
						CHANNELS 3 Xrotation Yrotation Zrotation
						End Site
						{
							OFFSET 0.000000 11.669021 0.000000
						}
					}
				}
			}
		}
	}
}
MOTION
Frames: 5
Frame Time: 0.033333
0.177311 99.174217 -0.789407 -0.013266 2.194127 -1.051764 -0.125497 0.563000 -0.398732 -0.246204 1.063188 -0.313418 -0.251874 1.422392 1.773550 8.427596 0.576264 3.798095 -6.886734 -2.489478 -5.541855 -0.000000 0.000000 -0.000000 -4.811920 -10.638941 -12.165660 16.240371 -28.514334 -68.254743 0.000006 -9.291180 0.000008 -11.492962 6.076589 -2.146676 -2.881713 3.737441 9.040969 12.459178 25.900154 0.633053 -17.723060 -15.295551 3.809541 0.000000 -0.000000 0.000000 0.722043 5.242898 -19.056436 0.227586 1.618578 -16.006207 0.038562 0.671818 -6.570530 -0.000003 -0.000000 -0.000002 0.445640 4.440819 -20.097905 0.256640 1.716602 -17.004649 0.038504 0.671343 -6.565895 -0.000001 0.000000 -0.000002 -1.275390 0.689770 -24.655224 0.393933 2.113807 -21.110892 0.038513 0.671365 -6.566045 0.000001 0.000000 0.000001 -3.278085 -3.337877 -25.923162 0.433045 2.212359 -22.147030 0.038440 0.670723 -6.559681 -0.000003 0.000000 -0.000000 -2.183842 -0.069915 11.813311 19.535716 39.084931 62.976373 0.000005 10.825444 0.000002 -14.441918 0.536952 0.113409 -6.843451 -4.634706 -19.350629 11.508240 -15.498058 5.715247 -16.630273 13.068776 -16.100060 0.000001 -0.000003 0.000001 1.030082 -6.398573 15.661897 0.131290 -1.099149 13.622105 0.025313 -0.485498 5.970891 -0.000002 -0.000002 0.000003 1.071329 -5.664543 22.565427 0.287531 -1.612595 20.217715 0.025315 -0.485504 5.970813 -0.000000 -0.000003 -0.000001 -1.022083 -1.296850 27.059056 0.416626 -1.927118 24.395926 0.025318 -0.485504 5.970868 0.000001 0.000002 0.000001 -2.356982 0.080220 32.964552 0.636203 -2.351634 30.272816 0.025320 -0.485514 5.970926 -0.000001 0.000003 0.000001 -4.903374 11.014209 1.598724 6.064454 -3.013918 0.054737 -1.460001 5.853460 0.400328 -0.004191 0.000002 0.000000 0.000000 0.000002 0.000000 -3.746384 0.686862 0.508712 4.093387 -4.865043 0.620281 -0.295188 2.412456 -0.001176 -0.009037 0.000000 0.000000 -0.000000 0.000000 0.000000 
0.155213 99.195007 -0.715375 -0.052733 2.199732 -1.066158 -0.125650 0.562006 -0.382827 -0.246205 1.063189 -0.313418 -0.251874 1.422392 1.773551 8.572545 0.544875 3.820907 -6.841198 -3.179050 -5.286226 -0.000000 -0.000000 0.000000 -4.828293 -10.649900 -12.235137 16.370562 -28.435652 -68.143814 0.000001 -9.332535 -0.000005 -11.535696 6.060886 -2.119629 -2.881702 3.737436 9.040996 12.459170 25.900154 0.633040 -17.723047 -15.295555 3.809547 0.000002 -0.000000 0.000001 0.720512 5.240130 -19.025938 0.228838 1.622956 -16.050723 0.039095 0.676376 -6.615310 0.000001 -0.000000 -0.000001 0.457473 4.473044 -20.094960 0.256635 1.716596 -17.004663 0.038512 0.671349 -6.565886 0.000001 -0.000001 0.000000 -1.279662 0.680452 -24.656223 0.393931 2.113801 -21.110913 0.038508 0.671367 -6.566049 -0.000002 -0.000000 -0.000000 -3.276669 -3.334977 -25.922769 0.433040 2.212365 -22.147030 0.038437 0.670721 -6.559680 -0.000003 -0.000003 -0.000002 -2.180531 -0.084777 11.782031 19.368181 39.019044 63.042598 0.000001 10.583714 0.000004 -14.306483 0.715163 0.297327 -6.843445 -4.634702 -19.350607 11.508237 -15.498061 5.715224 -16.630269 13.068769 -16.100043 0.000000 -0.000003 -0.000002 1.023591 -6.392791 15.571359 0.131275 -1.099123 13.622142 0.025326 -0.485519 5.970863 -0.000000 -0.000000 0.000001 1.047544 -5.609993 22.535552 0.280405 -1.593146 19.963313 0.023189 -0.464654 5.713468 -0.000001 0.000002 -0.000001 -1.042498 -1.253214 27.035214 0.411477 -1.915722 24.242317 0.024042 -0.473144 5.818226 0.000002 0.000000 -0.000001 -2.767307 0.541237 33.841924 0.637017 -2.353026 30.292743 0.025465 -0.486855 5.987489 0.000001 0.000001 -0.000001 -4.782198 10.993583 1.618929 6.004459 -3.024368 0.062440 -1.480868 5.876690 0.372067 -0.004192 -0.000000 -0.000000 0.000000 -0.000000 -0.000000 -3.596806 0.722727 0.535168 3.989352 -4.862750 0.643770 -0.294234 2.368409 -0.036328 -0.009037 -0.000000 -0.000000 0.000000 -0.000000 -0.000000 
0.129435 99.211777 -0.648098 -0.073744 2.231750 -1.050135 -0.125522 0.551923 -0.387503 -0.246205 1.057613 -0.317553 -0.251874 1.422393 1.768672 8.716998 0.517103 3.847717 -6.762505 -3.803941 -5.036757 -0.000000 -0.000000 -0.000000 -4.844320 -10.660202 -12.303411 16.501104 -28.373084 -67.982942 -0.000002 -9.339951 -0.000008 -11.487352 6.014577 -2.270364 -2.881705 3.737440 9.040965 12.458559 25.896599 0.632870 -17.723052 -15.295558 3.809537 0.000000 -0.000001 -0.000001 0.719126 5.237637 -18.998349 0.227437 1.618073 -16.000999 0.038501 0.671287 -6.565265 0.000000 -0.000001 -0.000003 0.461553 4.484051 -20.118099 0.256642 1.716606 -17.004658 0.038513 0.671348 -6.565912 -0.000001 0.000001 0.000001 -1.281619 0.675171 -24.651350 0.393574 2.112900 -21.101408 0.038405 0.670418 -6.556812 -0.000000 -0.000000 -0.000001 -3.268895 -3.319110 -25.920216 0.433032 2.212360 -22.147028 0.038446 0.670724 -6.559687 -0.000001 0.000001 0.000001 -2.183502 -0.117401 11.723632 19.069552 38.956923 63.197773 -0.000002 10.232827 0.000014 -14.127275 0.938436 0.522797 -6.843458 -4.634714 -19.350626 11.508243 -15.498061 5.715227 -16.630281 13.068770 -16.100042 -0.000002 -0.000001 0.000001 1.019118 -6.386428 15.521641 0.131296 -1.099168 13.622641 0.025320 -0.485551 5.971246 0.000001 0.000000 0.000000 1.046115 -5.605172 22.554902 0.272195 -1.570356 19.665721 0.020827 -0.440434 5.414644 -0.000001 -0.000001 -0.000001 -1.057116 -1.226087 27.048478 0.407909 -1.907791 24.135387 0.023173 -0.464532 5.711986 0.000001 -0.000000 -0.000000 -3.244406 1.039755 34.841215 0.633064 -2.346251 30.196311 0.024545 -0.478046 5.878810 -0.000003 -0.000003 0.000000 -4.676063 10.929805 1.614720 5.927775 -3.045062 0.060824 -1.481460 5.933147 0.342193 -0.004191 0.000002 -0.000000 -0.000000 -0.000000 0.000000 -3.491540 0.671341 0.536377 3.942220 -4.863998 0.641390 -0.334090 2.390233 -0.051987 -0.009037 -0.000000 -0.000000 0.000000 0.000000 0.000000 
0.103526 99.169357 -0.584230 -0.088317 2.283043 -1.010285 -0.125101 0.539091 -0.430074 -0.246204 1.044311 -0.328122 -0.251874 1.409133 1.758095 8.867202 0.493272 3.881871 -6.616314 -4.353250 -4.791609 0.000000 0.000000 -0.000000 -4.845043 -10.659337 -12.307892 16.583795 -28.290282 -67.904484 0.000004 -9.337618 -0.000003 -11.346364 5.963128 -2.464497 -2.882045 3.735202 9.055408 12.456348 25.883132 0.632077 -17.723069 -15.295544 3.809547 -0.000002 0.000001 -0.000000 0.717141 5.234050 -18.958899 0.226088 1.613370 -15.953220 0.037941 0.666392 -6.517194 -0.000001 -0.000000 -0.000005 0.461152 4.483021 -20.103376 0.256329 1.715558 -16.994004 0.038379 0.670276 -6.555272 0.000001 -0.000000 0.000000 -1.285293 0.661271 -24.621644 0.393257 2.112055 -21.092635 0.038309 0.669594 -6.548564 0.000000 -0.000002 -0.000001 -3.266261 -3.320757 -25.900697 0.433034 2.212367 -22.147028 0.038442 0.670714 -6.559696 -0.000003 -0.000000 0.000001 -2.185610 -0.142948 11.676877 18.773572 38.899782 63.336098 -0.000003 9.861524 -0.000011 -13.971000 1.179253 0.825269 -6.843447 -4.634704 -19.350600 11.508244 -15.498073 5.715212 -16.630281 13.068770 -16.100018 -0.000002 -0.000001 -0.000004 0.993371 -6.335241 15.307405 0.131516 -1.100105 13.634441 0.025413 -0.486412 5.982073 0.000001 -0.000002 0.000000 1.002765 -5.500229 22.574948 0.261283 -1.539511 19.263898 0.017814 -0.407402 5.007436 -0.000001 0.000003 0.000004 -1.084239 -1.168381 27.019798 0.402439 -1.895553 23.970631 0.021871 -0.451287 5.548642 -0.000001 -0.000000 -0.000000 -3.726492 1.505487 35.833628 0.633731 -2.347394 30.212522 0.024545 -0.477992 5.878078 -0.000001 -0.000001 0.000000 -4.669379 10.865488 1.588660 6.032498 -3.072865 0.052573 -1.569379 5.977679 0.339855 -0.004190 -0.000012 0.000001 0.000000 0.000000 0.000000 -3.517823 0.582340 0.528375 4.150190 -4.870007 0.593028 -0.502814 2.442153 -0.033921 -0.009037 0.000000 -0.000000 0.000000 0.000000 -0.000000 
0.100078 99.038589 -0.517965 -0.111033 2.340841 -0.948215 -0.134398 0.528322 -0.502691 -0.255982 1.032648 -0.339396 -0.261601 1.397752 1.746730 9.026684 0.476730 3.920177 -6.377634 -4.815113 -4.548543 -0.000000 0.000000 0.000000 -4.837030 -10.661084 -12.266527 16.625437 -28.154132 -67.933874 -0.000002 -9.334525 0.000001 -11.160744 5.900742 -2.596124 -2.886108 3.720919 9.060025 12.452310 25.859141 0.630943 -17.723050 -15.295555 3.809553 -0.000001 0.000001 0.000001 0.717761 5.235167 -18.971284 0.225688 1.611977 -15.939030 0.037772 0.664937 -6.502939 -0.000001 0.000002 0.000001 0.462102 4.485497 -20.126129 0.255935 1.714310 -16.981199 0.038240 0.668957 -6.542504 0.000001 -0.000003 0.000004 -1.289257 0.646527 -24.590926 0.392572 2.110264 -21.073767 0.038094 0.667730 -6.530316 -0.000002 0.000004 0.000002 -3.263769 -3.318390 -25.892667 0.433033 2.212360 -22.147030 0.038440 0.670721 -6.559690 -0.000001 -0.000002 -0.000003 -2.187709 -0.150096 11.664477 18.706430 38.859695 63.287228 -0.000008 9.715016 -0.000012 -13.901181 1.311031 1.261264 -6.843444 -4.634701 -19.350600 11.508241 -15.498075 5.715221 -16.630274 13.068773 -16.100023 -0.000001 -0.000000 -0.000000 0.949433 -6.249457 14.916944 0.130078 -1.094112 13.558889 0.024762 -0.480132 5.904270 -0.000001 -0.000001 -0.000000 0.918001 -5.307171 22.421793 0.243242 -1.486892 18.580599 0.013225 -0.351168 4.315023 -0.000000 -0.000001 -0.000001 -1.114844 -1.090838 26.902133 0.389390 -1.865946 23.573034 0.018862 -0.419164 5.152623 0.000000 -0.000001 0.000002 -4.181139 1.903202 36.791200 0.627385 -2.336484 30.057368 0.023077 -0.463572 5.700076 0.000002 0.000000 -0.000001 -4.786396 10.827020 1.563043 6.416721 -3.093688 0.035094 -1.805784 5.980294 0.359690 -0.004191 -0.000007 -0.000000 -0.000000 0.000002 0.000000 -3.708152 0.527373 0.510781 4.711647 -4.880403 0.503301 -0.846170 2.461120 0.044180 -0.009037 0.000001 -0.000000 0.000000 0.000000 0.000000 
